<svg xmlns="http://www.w3.org/2000/svg" viewBox="0 0 640 480"><path fill="#012169" d="M0 0h640v480H0z"/><path fill="#FFF" d="m75 0 244 181L562 0h78v62L400 241l240 178v61h-80L320 301 81 480H0v-60l239-178L0 64V0h75z"/><path fill="#C8102E" d="m424 281 216 159v40L424 281zM216 281 0 440v40l216-159zM0 0v40L216 199 0 40V0z m640 0v40L424 199 640 40V0z"/><path fill="#FFF" d="M281 0h78L0 201v78l359-279zm-40 480h78L640 279v-78L241 480z"/><path fill="#C8102E" d="M0 240h640v-48H0v48zm0 48h640v-48H0v48zM320 0v480h-48V0h48zm48 0v480h-48V0h48z"/></svg>